<svg xmlns="http://www.w3.org/2000/svg" viewBox="0 0 40 40"><defs><style>.cls-1{fill:#333;}.cls-1,.cls-3,.cls-4,.cls-6{stroke:#1a1a1a;}.cls-1,.cls-3,.cls-4,.cls-5,.cls-6{stroke-miterlimit:10;}.cls-2,.cls-5{fill:#fff;}.cls-3{fill:#fbae17;}.cls-4{fill:#7f47dd;}.cls-5{stroke:#000;}.cls-6{fill:#88a80d;}</style></defs><g id="Layer_2" data-name="Layer 2"><rect class="cls-1" x="0.5" y="0.5" width="39" height="39" rx="3.05"/></g><g id="Layer_1" data-name="Layer 1"><path class="cls-2" d="M20,36.5" transform="translate(0 0)"/><path class="cls-3" d="M20,5V20a1,1,0,0,1-1,1H3.05a1,1,0,0,1-.72-1.79L13.63,8.6l4.61-4.31A1,1,0,0,1,20,5Z" transform="translate(0 0)"/><path class="cls-4" d="M36.55,7.05,25,20.51c-.93,1.07-2.46.27-2.46-1.28V5.77A1.63,1.63,0,0,1,24,4H35.54C36.85,4,37.5,6,36.55,7.05Z" transform="translate(0 0)"/><path class="cls-5" d="M20-6.85" transform="translate(0 0)"/><rect class="cls-6" x="2.5" y="23.5" width="35" height="13" rx="1.92"/><path class="cls-3" d="M12,15.63" transform="translate(0 0)"/></g></svg>